<svg version="1.2" xmlns="http://www.w3.org/2000/svg" viewBox="0 0 1546 373" width="1546" height="373">
	<title>freelancer-logo (1)-svg</title>
	<style>
		.s0 { fill: #29b2fe } 
		.s1 { fill: #161f2b } 
	</style>
	<g id="Layer">
		<path id="Layer" fill-rule="evenodd" class="s0" d="m295 0l34.1 47.8 172.6-47.8m-386 372.6l93.4-91.3-56.2-60.3zm165.2-372.6l-49.9 45 83.9 3.1zm-194 0l17.9 36.8 98.8 6.1zm52.9 190.5l72.9-136.1-211.9-11.5zm8.5 8.7l68.9 74 76.1-74.5 23.6-138.9-92.7-4.7z"/>
	</g>
	<path id="Layer" fill-rule="evenodd" class="s1" d="m440.9 174.6h-18.9l-16.6 104.5c-0.4 2.7-3 5-5.7 5h-37.8c-2.8 0-4.7-2.3-4.2-5l23.2-146.5c5.9-37.1 24.6-45.3 50.2-45.3 7.9 0 16.3 0.7 22.8 2 2.9 0.5 4.9 2.2 4.4 5l-3.7 23.6c-0.5 2.7-3 4.7-6 4.7h-10.4c-6.3 0-8.4 2.5-9.6 10l-1 6.7h18.9c2.7 0 4.6 2.2 4.2 5l-4.1 25.3c-0.4 2.8-3 5-5.7 5zm94.3 1.8h-3.4c-10.7 0-21.2 1.5-29.6 5.7l-15.2 96.5c-0.5 2.7-2.9 5.5-5.9 5.5h-37.3c-3 0-5-2.8-4.6-5.5l21.3-134.3c0.4-2.8 2.3-5 5.7-5h35.9c3.4 0 4.7 1.2 4.1 5l-0.9 5.9c13-11.7 22.2-12.9 35.4-12.9 4.2 0 4.8 1 4.2 5l-4.8 30.3c-0.5 3-1.6 3.8-4.9 3.8zm125 48.7h-77.4v0.5c-2.1 13.2 2.1 21.4 20.2 21.4 13.2 0 37.8-1.2 47.6-2 4-0.2 5.4 0.5 4.8 4.2l-3.6 22.4c-0.6 4-1.9 5.7-6 7-16.8 5.2-34.3 7.7-55.2 7.7-33.6 0-61.9-17.7-54.4-65.2l2.6-16.4c7-43.8 36.1-67.6 76.9-67.6 43.5 0 59.3 27.6 53 67.6l-2.4 15c-0.5 3.2-3.1 5.4-6.1 5.4zm-36.2-27.1c2.3-14.9-2.2-23.9-14.7-23.9-11.9 0-19.8 9-22.2 23.9l-0.1 0.7h36.8c0 0 0.2-0.7 0.2-0.7zm173.9 27.1h-77.4l-0.1 0.5c-2 13.2 2.1 21.4 20.3 21.4 13.2 0 37.7-1.2 47.6-2 4-0.2 5.4 0.5 4.8 4.2l-3.6 22.4c-0.6 4-1.9 5.7-6.1 7-16.7 5.2-34.3 7.7-55.2 7.7-33.5 0-61.8-17.7-54.3-65.2l2.6-16.4c6.9-43.8 36.1-67.6 76.9-67.6 43.5 0 59.3 27.6 52.9 67.6l-2.3 15c-0.5 3.2-3.1 5.4-6.1 5.4zm-36.3-27.1c2.4-14.9-2.2-23.9-14.6-23.9-11.9 0-19.8 9-22.2 23.9l-0.1 0.7h36.8zm86.7 86.1h-37.5c-2.8 0-5.1-2.7-4.6-5.4l28.8-181.9c0.4-2.7 3.5-5 6.2-5h37.6c2.7 0 4.6 2.3 4.2 5l-28.8 181.9c-0.5 2.7-3.1 5.4-5.9 5.4zm132.2 0h-34.6c-2.7 0-4.6-2.2-4.1-4.9l0.8-5.3c-10.6 7-23.9 12.5-37.5 12.5-19.7 0-40.8-11-35.5-44.6l0.5-3c4.7-29.8 29-40.5 70.5-40.5h10.7l1.2-7.2c1.9-12.2-1.7-14.4-14.2-14.4-13.9 0-36.5 1.2-43.5 1.7-4.3 0.3-5.2-2-4.7-5l3.8-24.1c0.6-3.7 2.8-5 6-6 8.6-2.5 30.5-6 46.4-6 36.1 0 60.4 13 53.9 53.8l-13.9 88.1c-0.4 2.7-3 4.9-5.8 4.9zm-44-59.9c-12.4 0-18 4-19.7 14.4l-0.3 2.5c-1.4 8.5 3.9 10.9 10.9 10.9 6 0 13-1.7 17.5-3.7 0 0 3.8-24.1 3.8-24.1zm187.6 59.9h-37.3c-3 0-5-2.7-4.6-5.4l13.4-84.4c2.1-13.2-1.5-17.4-12.7-17.4-5.7 0-13.3 2.2-19.5 5.2l-15.2 96.6c-0.5 2.7-2.9 5.4-5.9 5.4h-37.3c-3 0-5-2.7-4.6-5.4l21.3-134.4c0.4-2.7 3-5 5.7-5h34.6c2.7 0 4.6 2.3 4.2 5l-0.9 5.7c14.7-9.9 29.1-12.7 43-12.7 39.1 0 39.7 27.4 35 57l-13.3 84.4c-0.5 2.7-2.9 5.4-5.9 5.4zm110.4-1.7c-8.8 2-20.1 4-34.7 4-38.1 0-55.6-24.4-49.1-65.2l2.9-18.7c6.4-40.5 31.8-65.4 69.8-65.4 14.7 0 26.8 2.2 33.5 4 3.1 0.7 4.6 2 4.1 5.2l-4.4 28.1c-0.5 3-2.4 5.2-6 4.7-8.4-0.7-16.2-1.7-28.3-1.7-10.7 0-18 6.7-20.9 25.1l-3 18.7c-2.9 18.4 2.3 24.9 13 24.9 12.2 0 20.2-0.5 28.8-1.5 3.8-0.5 5 1.5 4.5 4.7l-4.4 27.9c-0.5 3.2-2.5 4.4-5.8 5.2zm146-57.2h-77.4l-0.1 0.5c-2.1 13.1 2.1 21.4 20.3 21.4 13.2 0 37.7-1.3 47.5-2 4.1-0.3 5.4 0.4 4.9 4.2l-3.6 22.4c-0.6 4-1.9 5.7-6.1 6.9-16.7 5.3-34.3 7.8-55.2 7.8-33.5 0-61.8-17.7-54.3-65.2l2.6-16.4c6.9-43.8 36.1-67.7 76.9-67.7 43.5 0 59.3 27.6 52.9 67.7l-2.4 14.9c-0.5 3.2-3.1 5.5-6 5.5zm-36.3-27.2c2.4-14.9-2.2-23.8-14.6-23.8-11.9 0-19.8 8.9-22.2 23.8l-0.1 0.8h36.8zm114.5-58.7q0 0 0 0zm-22.2 139.3c-0.4 2.7-2.8 5.5-5.8 5.5h-37.3c-3 0-5.1-2.8-4.6-5.5l14.7-92.2c0 0 55.2-47.1 55.2-47.1z"/>
	<path id="Layer" class="s0" d="m1471.4 139.3l-7.6 47.8 82-47.8"/>
</svg>